HIERARCHY
ROOT Hips
{
	OFFSET 0.000000 97.167313 0.000000
	CHANNELS 6 Xposition Yposition Zposition Xrotation Yrotation Zrotation
	JOINT Spine
	{
		OFFSET 0.000000 13.784798 0.064400
		CHANNELS 3 Xrotation Yrotation Zrotation
		JOINT Spine1
		{
			OFFSET 0.000000 12.037903 0.404700
			CHANNELS 3 Xrotation Yrotation Zrotation
			JOINT Spine2
			{
				OFFSET 0.000000 17.795601 0.420200
				CHANNELS 3 Xrotation Yrotation Zrotation
				JOINT Neck
				{
					OFFSET 0.000000 39.131302 11.954600
					CHANNELS 3 Xrotation Yrotation Zrotation
					JOINT Head
					{
						OFFSET 0.000000 14.456192 15.627699
						CHANNELS 3 Xrotation Yrotation Zrotation
						JOINT HeadTop_End
						{
							OFFSET 0.000000 15.703506 7.603401
							CHANNELS 3 Xrotation Yrotation Zrotation
							End Site
							{
								OFFSET 0.000000 17.447403 0.000000
							}
						}
					}
				}
				JOINT LeftShoulder
				{
					OFFSET 17.399500 24.608795 1.168800
					CHANNELS 3 Xrotation Yrotation Zrotation
					JOINT LeftArm
					{
						OFFSET 18.980635 5.765305 1.818600
						CHANNELS 3 Xrotation Yrotation Zrotation
						JOINT LeftForeArm
						{
							OFFSET 49.290169 0.000000 0.000000
							CHANNELS 3 Xrotation Yrotation Zrotation
							JOINT LeftHand
							{
								OFFSET 31.562012 0.000000 0.000000
								CHANNELS 3 Xrotation Yrotation Zrotation
								JOINT LeftHandThumb1
								{
									OFFSET 6.133995 -4.388519 7.076070
									CHANNELS 3 Xrotation Yrotation Zrotation
									JOINT LeftHandThumb2
									{
										OFFSET 6.037666 -3.485840 3.485847
										CHANNELS 3 Xrotation Yrotation Zrotation
										JOINT LeftHandThumb3
										{
											OFFSET 6.496506 -3.750763 3.750761
											CHANNELS 3 Xrotation Yrotation Zrotation
											JOINT LeftHandThumb4
											{
												OFFSET 5.616882 -3.242905 3.242910
												CHANNELS 3 Xrotation Yrotation Zrotation
												End Site
												{
													OFFSET -1.254608 7.132141 0.375429
												}
											}
										}
									}
								}
								JOINT LeftHandPinky1
								{
									OFFSET 18.920792 -0.453171 -11.426712
									CHANNELS 3 Xrotation Yrotation Zrotation
									JOINT LeftHandPinky2
									{
										OFFSET 4.919586 0.000000 0.000000
										CHANNELS 3 Xrotation Yrotation Zrotation
										JOINT LeftHandPinky3
										{
											OFFSET 5.233047 0.000000 0.000000
											CHANNELS 3 Xrotation Yrotation Zrotation
											JOINT LeftHandPinky4
											{
												OFFSET 5.571716 0.000000 0.000000
												CHANNELS 3 Xrotation Yrotation Zrotation
												End Site
												{
													OFFSET -3.459808 4.342407 -0.466164
												}
											}
										}
									}
								}
								JOINT LeftHandRing1
								{
									OFFSET 22.726120 -0.094986 -6.500475
									CHANNELS 3 Xrotation Yrotation Zrotation
									JOINT LeftHandRing2
									{
										OFFSET 6.408615 0.000000 0.000000
										CHANNELS 3 Xrotation Yrotation Zrotation
										JOINT LeftHandRing3
										{
											OFFSET 6.150223 0.000000 0.000000
											CHANNELS 3 Xrotation Yrotation Zrotation
											JOINT LeftHandRing4
											{
												OFFSET 6.145386 0.000000 0.000000
												CHANNELS 3 Xrotation Yrotation Zrotation
												End Site
												{
													OFFSET -3.671402 4.923981 -0.202372
												}
											}
										}
									}
								}
								JOINT LeftHandMiddle1
								{
									OFFSET 23.373947 0.000000 0.000001
									CHANNELS 3 Xrotation Yrotation Zrotation
									JOINT LeftHandMiddle2
									{
										OFFSET 6.996567 0.000000 0.000000
										CHANNELS 3 Xrotation Yrotation Zrotation
										JOINT LeftHandMiddle3
										{
											OFFSET 7.015945 0.000000 0.000000
											CHANNELS 3 Xrotation Yrotation Zrotation
											JOINT LeftHandMiddle4
											{
												OFFSET 7.721573 0.000000 0.000000
												CHANNELS 3 Xrotation Yrotation Zrotation
												End Site
												{
													OFFSET -4.651108 6.158463 0.251582
												}
											}
										}
									}
								}
								JOINT LeftHandIndex1
								{
									OFFSET 21.310577 -0.490082 6.209344
									CHANNELS 3 Xrotation Yrotation Zrotation
									JOINT LeftHandIndex2
									{
										OFFSET 7.536453 0.000000 0.000000
										CHANNELS 3 Xrotation Yrotation Zrotation
										JOINT LeftHandIndex3
										{
											OFFSET 7.512344 0.000000 0.000000
											CHANNELS 3 Xrotation Yrotation Zrotation
											JOINT LeftHandIndex4
											{
												OFFSET 10.212402 0.000000 0.000001
												CHANNELS 3 Xrotation Yrotation Zrotation
												End Site
												{
													OFFSET -5.180801 8.690506 1.388433
												}
											}
										}
									}
								}
							}
						}
					}
				}
				JOINT RightShoulder
				{
					OFFSET -17.399500 24.608795 1.168800
					CHANNELS 3 Xrotation Yrotation Zrotation
					JOINT RightArm
					{
						OFFSET -18.980635 5.765305 1.818600
						CHANNELS 3 Xrotation Yrotation Zrotation
						JOINT RightForeArm
						{
							OFFSET -49.290169 0.000000 0.000000
							CHANNELS 3 Xrotation Yrotation Zrotation
							JOINT RightHand
							{
								OFFSET -31.562012 0.000000 0.000000
								CHANNELS 3 Xrotation Yrotation Zrotation
								JOINT RightHandThumb1
								{
									OFFSET -6.133995 -4.388519 7.076070
									CHANNELS 3 Xrotation Yrotation Zrotation
									JOINT RightHandThumb2
									{
										OFFSET -6.037666 -3.485840 3.485847
										CHANNELS 3 Xrotation Yrotation Zrotation
										JOINT RightHandThumb3
										{
											OFFSET -6.496506 -3.750763 3.750761
											CHANNELS 3 Xrotation Yrotation Zrotation
											JOINT RightHandThumb4
											{
												OFFSET -5.616882 -3.242905 3.242910
												CHANNELS 3 Xrotation Yrotation Zrotation
												End Site
												{
													OFFSET 1.254608 7.132141 0.375429
												}
											}
										}
									}
								}
								JOINT RightHandIndex1
								{
									OFFSET -21.310577 -0.490082 6.209344
									CHANNELS 3 Xrotation Yrotation Zrotation
									JOINT RightHandIndex2
									{
										OFFSET -7.536453 0.000000 0.000000
										CHANNELS 3 Xrotation Yrotation Zrotation
										JOINT RightHandIndex3
										{
											OFFSET -7.512344 0.000000 0.000000
											CHANNELS 3 Xrotation Yrotation Zrotation
											JOINT RightHandIndex4
											{
												OFFSET -10.212402 0.000000 0.000001
												CHANNELS 3 Xrotation Yrotation Zrotation
												End Site
												{
													OFFSET 5.180801 8.690506 1.388433
												}
											}
										}
									}
								}
								JOINT RightHandMiddle1
								{
									OFFSET -23.373947 0.000000 0.000001
									CHANNELS 3 Xrotation Yrotation Zrotation
									JOINT RightHandMiddle2
									{
										OFFSET -6.996567 0.000000 0.000000
										CHANNELS 3 Xrotation Yrotation Zrotation
										JOINT RightHandMiddle3
										{
											OFFSET -7.015945 0.000000 0.000000
											CHANNELS 3 Xrotation Yrotation Zrotation
											JOINT RightHandMiddle4
											{
												OFFSET -7.721573 0.000000 0.000000
												CHANNELS 3 Xrotation Yrotation Zrotation
												End Site
												{
													OFFSET 4.651108 6.158463 0.251582
												}
											}
										}
									}
								}
								JOINT RightHandRing1
								{
									OFFSET -22.726120 -0.094986 -6.500475
									CHANNELS 3 Xrotation Yrotation Zrotation
									JOINT RightHandRing2
									{
										OFFSET -6.408615 0.000000 0.000000
										CHANNELS 3 Xrotation Yrotation Zrotation
										JOINT RightHandRing3
										{
											OFFSET -6.150223 0.000000 0.000000
											CHANNELS 3 Xrotation Yrotation Zrotation
											JOINT RightHandRing4
											{
												OFFSET -6.145386 0.000000 0.000000
												CHANNELS 3 Xrotation Yrotation Zrotation
												End Site
												{
													OFFSET 3.671402 4.923981 -0.202372
												}
											}
										}
									}
								}
								JOINT RightHandPinky1
								{
									OFFSET -18.920792 -0.453171 -11.426712
									CHANNELS 3 Xrotation Yrotation Zrotation
									JOINT RightHandPinky2
									{
										OFFSET -4.919586 0.000000 0.000000
										CHANNELS 3 Xrotation Yrotation Zrotation
										JOINT RightHandPinky3
										{
											OFFSET -5.233047 0.000000 0.000000
											CHANNELS 3 Xrotation Yrotation Zrotation
											JOINT RightHandPinky4
											{
												OFFSET -5.571716 0.000000 0.000000
												CHANNELS 3 Xrotation Yrotation Zrotation
												End Site
												{
													OFFSET 3.459808 4.342407 -0.466164
												}
											}
										}
									}
								}
							}
						}
					}
				}
			}
		}
	}
	JOINT LeftUpLeg
	{
		OFFSET 19.899099 -7.885101 -3.429500
		CHANNELS 3 Xrotation Yrotation Zrotation
		JOINT LeftLeg
		{
			OFFSET 1.745560 -36.997807 10.304700
			CHANNELS 3 Xrotation Yrotation Zrotation
			JOINT LeftFoot
			{
				OFFSET -1.745558 -29.803308 -13.615400
				CHANNELS 3 Xrotation Yrotation Zrotation
				JOINT LeftToeBase
				{
					OFFSET 1.181900 -18.539904 15.226099
					CHANNELS 3 Xrotation Yrotation Zrotation
					JOINT LeftToe_End
					{
						OFFSET -0.863701 1.402801 16.534700
						CHANNELS 3 Xrotation Yrotation Zrotation
						End Site
						{
							OFFSET 0.000000 16.616566 0.000000
						}
					}
				}
			}
		}
	}
	JOINT RightUpLeg
	{
		OFFSET -19.899099 -7.885101 -3.429500
		CHANNELS 3 Xrotation Yrotation Zrotation
		JOINT RightLeg
		{
			OFFSET -1.745560 -36.997807 10.304700
			CHANNELS 3 Xrotation Yrotation Zrotation
			JOINT RightFoot
			{
				OFFSET 1.745558 -29.803308 -13.615400
				CHANNELS 3 Xrotation Yrotation Zrotation
				JOINT RightToeBase
				{
					OFFSET -1.181900 -18.539904 15.226099
					CHANNELS 3 Xrotation Yrotation Zrotation
					JOINT RightToe_End
					{
						OFFSET 0.863701 1.402801 16.534700
						CHANNELS 3 Xrotation Yrotation Zrotation
						End Site
						{
							OFFSET 0.000000 16.616566 0.000000
						}
					}
				}
			}
		}
	}
}
MOTION
Frames: 4
Frame Time: 0.033333
-5.641306 78.409569 1.674944 -73.106957 -98.371403 -75.112553 5.080778 -3.021499 -1.254698 4.847008 -2.724696 -1.011895 4.872828 -2.670305 -1.025817 -6.470356 11.543119 1.332224 1.868906 69.226467 6.189750 0.000001 0.000001 -0.000002 2.334445 -16.473650 5.405038 -58.657596 -59.148332 -60.618974 -0.001001 -91.815808 -0.001142 -1.362826 2.416367 38.308410 2.333963 -4.852081 -3.963519 13.533818 36.265907 -6.789666 18.237336 69.607639 3.188468 -0.000002 -0.000004 -0.000002 2.878032 7.353352 -58.659693 3.100874 5.166419 -61.922242 2.817861 5.005808 -58.730550 0.000002 0.000001 0.000001 3.051710 7.454224 -60.629738 5.249918 5.820198 -84.092804 2.817862 5.005787 -58.730563 0.000001 -0.000001 0.000003 2.878025 7.353368 -58.659686 6.420564 5.823398 -95.595246 1.278818 3.654815 -38.558750 0.000002 0.000000 0.000006 2.878035 7.353348 -58.659693 6.385706 5.826676 -95.251837 2.817833 5.005785 -58.730563 0.000000 -0.000000 -0.000001 2.128883 10.933929 -13.435723 -35.469189 -9.785039 14.948757 65.603489 147.292223 -40.615071 -3.487213 38.281540 -6.676099 2.454516 6.926589 5.617158 7.810735 -26.809461 -3.040592 18.936168 -62.858730 1.747724 0.000004 -0.000003 -0.000001 2.770843 -6.512080 65.405379 4.589362 -4.656691 89.164691 1.495827 -3.421536 47.217518 -0.000002 -0.000003 -0.000002 2.634481 -6.539969 74.809238 5.688688 -4.541761 102.810268 1.460399 -3.388486 46.621095 -0.000003 -0.000000 -0.000004 3.122535 -6.655070 70.080903 5.298679 -4.612866 97.926294 2.043371 -3.855867 55.828966 -0.000003 -0.000002 -0.000003 4.911932 -9.704388 53.806219 4.184463 -4.633168 84.168018 1.827815 -3.700702 52.558538 -0.000002 -0.000000 0.000002 -40.195059 5.632010 32.957428 42.179137 -12.188280 -0.322002 -9.641279 3.974384 -18.766887 -0.167801 0.001234 -0.428236 -0.000000 0.000001 -0.000000 -38.641174 -1.812078 -18.456537 49.092268 -1.226364 2.487896 -14.462750 -4.737373 14.656310 -0.000004 -0.000002 -0.000005 0.000000 -0.000002 0.000000 
-5.687852 78.389389 1.222133 -74.528559 -98.295042 -76.418902 5.094761 -3.096937 -1.236630 4.857475 -2.803038 -1.023848 4.884360 -2.748005 -1.037731 -6.501547 11.571278 1.315314 1.889291 69.275139 6.216096 -0.000000 -0.000000 -0.000000 2.327086 -16.445214 5.374910 -58.437391 -59.124972 -60.371557 -0.000429 -92.035180 -0.000261 -1.196716 2.464741 38.179829 2.333959 -4.852080 -3.963517 13.533818 36.265904 -6.789667 18.237353 69.607646 3.188470 0.000005 -0.000002 -0.000003 2.878026 7.353359 -58.659693 3.100873 5.166418 -61.922242 2.817860 5.005804 -58.730556 0.000001 -0.000002 -0.000004 3.051706 7.454233 -60.629738 5.249922 5.820197 -84.092804 2.817866 5.005795 -58.730570 -0.000000 0.000001 0.000003 2.878024 7.353369 -58.659693 6.420561 5.823400 -95.595246 1.278816 3.654821 -38.558754 0.000004 -0.000002 0.000001 2.878029 7.353357 -58.659693 6.385709 5.826672 -95.251851 2.817830 5.005785 -58.730563 -0.000001 -0.000002 -0.000002 2.112697 10.872009 -13.385522 -35.386623 -9.684372 15.066004 65.248141 147.195863 -40.315048 -3.332556 38.354545 -7.034083 2.454511 6.926591 5.617162 7.810729 -26.809464 -3.040598 18.936168 -62.858730 1.747720 0.000003 -0.000001 0.000001 2.770843 -6.512072 65.405372 4.589365 -4.656693 89.164691 1.495827 -3.421532 47.217518 -0.000000 -0.000001 -0.000003 2.634476 -6.539967 74.809231 5.688693 -4.541762 102.810268 1.460400 -3.388486 46.621102 -0.000002 -0.000001 -0.000004 3.122533 -6.655066 70.080903 5.298687 -4.612864 97.926287 2.043365 -3.855871 55.828966 0.000001 0.000001 -0.000002 4.911925 -9.704381 53.806219 4.184467 -4.633167 84.168011 1.827813 -3.700703 52.558538 -0.000001 -0.000003 0.000004 -39.985949 5.485298 32.967363 41.698182 -12.175268 -0.174656 -9.350709 4.002052 -19.134647 -0.116233 0.001270 -0.432985 -0.000000 0.000000 0.000000 -38.625198 -1.849237 -18.302125 49.548808 -1.437209 2.597633 -14.824835 -4.725103 14.341912 -0.109296 -0.000008 -0.000002 -0.000000 -0.000002 0.000000 
-5.746885 78.347466 0.815974 -75.110955 -98.223578 -76.860269 5.108822 -3.160202 -1.231505 4.868702 -2.867439 -1.038776 4.896444 -2.811987 -1.052630 -6.528038 11.602109 1.292834 1.917954 69.320403 6.264125 -0.000000 0.000003 -0.000000 2.313021 -16.389886 5.318603 -58.270195 -59.128729 -60.150163 -0.000136 -92.262803 -0.000158 -1.054889 2.342173 37.923526 2.333961 -4.852081 -3.963514 13.533819 36.265907 -6.789661 18.237343 69.607639 3.188449 0.000001 -0.000003 0.000000 2.878031 7.353353 -58.659693 3.100875 5.166417 -61.922242 2.817861 5.005805 -58.730556 0.000003 -0.000002 -0.000004 3.051708 7.454231 -60.629738 5.249922 5.820197 -84.092797 2.817866 5.005790 -58.730563 -0.000000 0.000001 0.000005 2.878027 7.353365 -58.659693 6.420566 5.823399 -95.595246 1.278816 3.654819 -38.558754 0.000001 0.000000 0.000001 2.878032 7.353354 -58.659693 6.385703 5.826673 -95.251844 2.817834 5.005788 -58.730556 0.000002 0.000003 -0.000001 2.096739 10.808342 -13.343033 -35.347189 -9.689900 15.192511 64.671817 147.092522 -39.751090 -3.084481 38.251259 -7.688291 2.454511 6.926590 5.617162 7.810732 -26.809459 -3.040594 18.936168 -62.858723 1.747730 0.000000 0.000000 0.000001 2.770842 -6.512077 65.405372 4.589364 -4.656693 89.164698 1.495826 -3.421536 47.217525 -0.000000 -0.000002 0.000003 2.634479 -6.539965 74.809245 5.688687 -4.541762 102.810268 1.460401 -3.388487 46.621102 -0.000001 -0.000001 -0.000007 3.122533 -6.655068 70.080903 5.298685 -4.612866 97.926287 2.043370 -3.855865 55.828962 -0.000001 -0.000001 -0.000003 4.911925 -9.704383 53.806215 4.184468 -4.633170 84.168018 1.827810 -3.700693 52.558538 -0.000001 -0.000004 0.000005 -39.698012 5.407313 32.966571 41.328740 -12.177967 -0.044898 -9.193449 4.115173 -19.421879 -0.077648 0.001411 -0.454497 -0.000000 0.000000 0.000000 -38.677681 -1.834749 -18.137982 50.025460 -1.584421 2.644676 -15.116450 -4.690393 14.011165 -0.237630 0.000049 0.000003 0.000000 -0.000000 -0.000000 
-5.814772 78.299538 0.468819 -74.866216 -98.180568 -76.454187 5.113739 -3.217398 -1.238881 4.871889 -2.922709 -1.052710 4.900244 -2.867116 -1.066486 -6.544295 11.632814 1.275860 2.045568 69.392823 6.232443 0.000000 0.000000 -0.000000 2.303139 -16.353454 5.276035 -58.220724 -59.150237 -60.063802 -0.000531 -92.369593 -0.000458 -0.825228 2.252875 37.741740 2.333960 -4.852082 -3.963516 13.533817 36.265900 -6.789663 18.237363 69.607639 3.188464 0.000001 0.000001 -0.000002 2.878027 7.353349 -58.659693 3.100871 5.166423 -61.922242 2.817858 5.005803 -58.730556 0.000001 0.000000 -0.000002 3.051707 7.454224 -60.629745 5.249919 5.820195 -84.092804 2.817865 5.005791 -58.730563 -0.000003 0.000003 0.000004 2.878024 7.353361 -58.659693 6.420558 5.823401 -95.595246 1.278815 3.654820 -38.558754 0.000001 -0.000003 0.000008 2.878031 7.353349 -58.659700 6.385708 5.826673 -95.251837 2.817830 5.005782 -58.730550 -0.000001 0.000006 0.000005 2.081424 10.748371 -13.297456 -35.334187 -9.716383 15.310847 64.276848 146.963719 -39.373930 -2.918675 38.317645 -8.061818 2.454511 6.926590 5.617160 7.810740 -26.809464 -3.040588 18.936172 -62.858723 1.747725 0.000000 -0.000001 0.000002 2.770848 -6.512068 65.405372 4.589364 -4.656694 89.164691 1.495826 -3.421534 47.217521 -0.000001 -0.000003 -0.000001 2.634481 -6.539966 74.809238 5.688690 -4.541759 102.810268 1.460402 -3.388485 46.621099 0.000002 0.000001 -0.000002 3.122535 -6.655067 70.080903 5.298684 -4.612863 97.926294 2.043369 -3.855863 55.828966 -0.000004 -0.000000 -0.000003 4.911931 -9.704380 53.806219 4.184467 -4.633168 84.168018 1.827818 -3.700702 52.558538 0.000003 0.000000 0.000004 -39.368551 5.396383 32.964091 41.054672 -12.097060 0.049402 -9.121657 4.203317 -19.600397 -0.090039 0.001897 -0.530566 0.000000 -0.000000 -0.000000 -38.793456 -1.786436 -17.986677 50.465908 -1.646535 2.645815 -15.340762 -4.642536 13.701801 -0.357767 -0.000022 -0.000003 0.000000 0.000000 -0.000000 
